<mxfile host="app.diagrams.net" modified="2022-01-29T22:52:13.403Z" agent="5.0 (Windows NT 10.0; Win64; x64) AppleWebKit/537.36 (KHTML, like Gecko) Chrome/97.0.4692.99 Safari/537.36 Edg/97.0.1072.76" etag="BSm0Zh3VgCNrno1J0BsK" version="16.5.2" type="github">
  <diagram id="1zFCTI9B1hO3N-UEUR9g" name="Page-1">
    <mxGraphModel dx="1422" dy="762" grid="1" gridSize="10" guides="1" tooltips="1" connect="1" arrows="1" fold="1" page="1" pageScale="1" pageWidth="850" pageHeight="1100" math="0" shadow="0">
      <root>
        <mxCell id="0" />
        <mxCell id="1" parent="0" />
        <mxCell id="Q4rl8DcZpF_Cm5DkV_oP-1" value="" style="rounded=0;whiteSpace=wrap;html=1;" vertex="1" parent="1">
          <mxGeometry x="360" y="360" width="120" height="60" as="geometry" />
        </mxCell>
        <mxCell id="Q4rl8DcZpF_Cm5DkV_oP-2" value="&lt;h1&gt;Kids Electronic Time&lt;/h1&gt;&lt;p&gt;Ability to Add Time based on {Reading, Writing, Math, Music}&lt;/p&gt;&lt;p&gt;Use electronic time {Watching Videos, Playing Video Games}&lt;/p&gt;" style="text;html=1;strokeColor=none;fillColor=none;spacing=5;spacingTop=-20;whiteSpace=wrap;overflow=hidden;rounded=0;" vertex="1" parent="1">
          <mxGeometry x="50" y="30" width="340" height="120" as="geometry" />
        </mxCell>
      </root>
    </mxGraphModel>
  </diagram>
</mxfile>
